# xmcd
#
# Track frame offsets:
#	150
#	18759
#	36278
#	58539
#	85569
#	105312
#	134599
#	154635
#	171970
#	198876
#
# Disc length: 2990 seconds
#
# Revision: 1823942224
# Processed by: cddbd v1.5.2PL0 Copyright (c) Steve Scherf et al.
# Submitted via: EZCDAudioConverter 8.0.2.1
#
DISCID=710bac0a
DTITLE=Nguyên Khang - Vì Đó Là Em [CD3)
DYEAR=2004
DGENRE=
TTITLE0=Cơn mưa hạ
TTITLE1=Còn một chút gì để nhớ
TTITLE2=Em về nào có hay
TTITLE3=Những gì còn lại
TTITLE4=Đợi chờ
TTITLE5=Em ơi! Hà Nội phố
TTITLE6=Ru đời đi nhé
TTITLE7=Thành phố cuồng say
TTITLE8=Tìm về chốn hoang vu
TTITLE9=Riêng một góc trời
EXTD=
EXTT0=
EXTT1=
EXTT2=
EXTT3=
EXTT4=
EXTT5=
EXTT6=
EXTT7=
EXTT8=
EXTT9=
PLAYORDER=
